HIERARCHY
ROOT hip
{
  OFFSET 5.70873 43.8894 -1.52928
  CHANNELS 6 Xposition Yposition Zposition Zrotation Xrotation Yrotation
  JOINT abdomen
  {
    OFFSET 0 5.99393 0.287273
    CHANNELS 6 Xposition Yposition Zposition Zrotation Xrotation Yrotation
    JOINT chest
    {
      OFFSET 0 6.65865 -0.856112
      CHANNELS 6 Xposition Yposition Zposition Zrotation Xrotation Yrotation
      JOINT neck
      {
        OFFSET 0 8.65624 -1.42685
        CHANNELS 6 Xposition Yposition Zposition Zrotation Xrotation Yrotation
        JOINT head
        {
          OFFSET 0 3.80999 -0.190247
          CHANNELS 6 Xposition Yposition Zposition Zrotation Xrotation Yrotation
          End Site
          {
            OFFSET 0 0 0
          }
        }
      }
      JOINT rCollar
      {
        OFFSET -1.4963 7.5744 -1.52136
        CHANNELS 6 Xposition Yposition Zposition Zrotation Xrotation Yrotation
        JOINT rShldr
        {
          OFFSET -5.47506 -0.905672 0.485692
          CHANNELS 6 Xposition Yposition Zposition Zrotation Xrotation Yrotation
          JOINT rForeArm
          {
            OFFSET -11.3069 -0.201091 0.618544
            CHANNELS 6 Xposition Yposition Zposition Zrotation Xrotation Yrotation
            JOINT rHand
            {
              OFFSET -9.61414 -0.254739 3.48553
              CHANNELS 6 Xposition Yposition Zposition Zrotation Xrotation Yrotation
              JOINT rThumb1
              {
                OFFSET 0.176263 -0.07068 1.26622
                CHANNELS 6 Xposition Yposition Zposition Zrotation Xrotation Yrotation
                JOINT rThumb2
                {
                  OFFSET -1.04683 -0.546484 1.82182
                  CHANNELS 6 Xposition Yposition Zposition Zrotation Xrotation Yrotation
                  JOINT rThumb3
                  {
                    OFFSET -0.993472 -0.621916 0.655506
                    CHANNELS 6 Xposition Yposition Zposition Zrotation Xrotation Yrotation
                    End Site
                    {
                      OFFSET -0.996134 -0.66263 0.644615
                    }
                  }
                }
              }
              JOINT rIndex1
              {
                OFFSET -2.64253 0.566363 2.4162
                CHANNELS 6 Xposition Yposition Zposition Zrotation Xrotation Yrotation
                JOINT rIndex2
                {
                  OFFSET -1.39394 -0.635138 0.899356
                  CHANNELS 6 Xposition Yposition Zposition Zrotation Xrotation Yrotation
                  JOINT rIndex3
                  {
                    OFFSET -0.622395 -0.856016 0.402182
                    CHANNELS 6 Xposition Yposition Zposition Zrotation Xrotation Yrotation
                    End Site
                    {
                      OFFSET -0.472476 -0.801802 0.34216
                    }
                  }
                }
              }
              JOINT rMid1
              {
                OFFSET -3.20814 0.514427 1.52547
                CHANNELS 6 Xposition Yposition Zposition Zrotation Xrotation Yrotation
                JOINT rMid2
                {
                  OFFSET -1.56545 -0.497974 0.68919
                  CHANNELS 6 Xposition Yposition Zposition Zrotation Xrotation Yrotation
                  JOINT rMid3
                  {
                    OFFSET -0.679943 -1.17582 0.444246
                    CHANNELS 6 Xposition Yposition Zposition Zrotation Xrotation Yrotation
                    End Site
                    {
                      OFFSET -0.343874 -0.941341 0.267611
                    }
                  }
                }
              }
              JOINT rRing1
              {
                OFFSET -3.47877 0.200518 0.597719
                CHANNELS 6 Xposition Yposition Zposition Zrotation Xrotation Yrotation
                JOINT rRing2
                {
                  OFFSET -1.28208 -0.53155 0.44672
                  CHANNELS 6 Xposition Yposition Zposition Zrotation Xrotation Yrotation
                  JOINT rRing3
                  {
                    OFFSET -0.710288 -0.970167 0.4032
                    CHANNELS 6 Xposition Yposition Zposition Zrotation Xrotation Yrotation
                    End Site
                    {
                      OFFSET -0.403228 -0.950952 0.378354
                    }
                  }
                }
              }
              JOINT rPinky1
              {
                OFFSET -3.42483 -0.278904 -0.240415
                CHANNELS 6 Xposition Yposition Zposition Zrotation Xrotation Yrotation
                JOINT rPinky2
                {
                  OFFSET -1.05787 -0.635999 0.156459
                  CHANNELS 6 Xposition Yposition Zposition Zrotation Xrotation Yrotation
                  JOINT rPinky3
                  {
                    OFFSET -0.42815 -0.754232 0.287187
                    CHANNELS 6 Xposition Yposition Zposition Zrotation Xrotation Yrotation
                    End Site
                    {
                      OFFSET -0.235717 -0.725605 0.279416
                    }
                  }
                }
              }
            }
          }
        }
      }
      JOINT lCollar
      {
        OFFSET 1.4963 7.5744 -1.52136
        CHANNELS 6 Xposition Yposition Zposition Zrotation Xrotation Yrotation
        JOINT lShldr
        {
          OFFSET 5.47506 -0.905672 0.485692
          CHANNELS 6 Xposition Yposition Zposition Zrotation Xrotation Yrotation
          JOINT lForeArm
          {
            OFFSET 11.3069 -0.201091 0.618544
            CHANNELS 6 Xposition Yposition Zposition Zrotation Xrotation Yrotation
            JOINT lHand
            {
              OFFSET 9.61414 -0.254739 3.48553
              CHANNELS 6 Xposition Yposition Zposition Zrotation Xrotation Yrotation
              JOINT lThumb1
              {
                OFFSET -0.176263 -0.07068 1.26622
                CHANNELS 6 Xposition Yposition Zposition Zrotation Xrotation Yrotation
                JOINT lThumb2
                {
                  OFFSET 1.04683 -0.546484 1.82182
                  CHANNELS 6 Xposition Yposition Zposition Zrotation Xrotation Yrotation
                  JOINT lThumb3
                  {
                    OFFSET 0.993472 -0.621916 0.655506
                    CHANNELS 6 Xposition Yposition Zposition Zrotation Xrotation Yrotation
                    End Site
                    {
                      OFFSET 0.996134 -0.66263 0.644615
                    }
                  }
                }
              }
              JOINT lIndex1
              {
                OFFSET 2.64253 0.566363 2.4162
                CHANNELS 6 Xposition Yposition Zposition Zrotation Xrotation Yrotation
                JOINT lIndex2
                {
                  OFFSET 1.39394 -0.635138 0.899356
                  CHANNELS 6 Xposition Yposition Zposition Zrotation Xrotation Yrotation
                  JOINT lIndex3
                  {
                    OFFSET 0.622395 -0.856016 0.402182
                    CHANNELS 6 Xposition Yposition Zposition Zrotation Xrotation Yrotation
                    End Site
                    {
                      OFFSET 0.472476 -0.801802 0.34216
                    }
                  }
                }
              }
              JOINT lMid1
              {
                OFFSET 3.20814 0.514427 1.52547
                CHANNELS 6 Xposition Yposition Zposition Zrotation Xrotation Yrotation
                JOINT lMid2
                {
                  OFFSET 1.56545 -0.497974 0.68919
                  CHANNELS 6 Xposition Yposition Zposition Zrotation Xrotation Yrotation
                  JOINT lMid3
                  {
                    OFFSET 0.679943 -1.17582 0.444246
                    CHANNELS 6 Xposition Yposition Zposition Zrotation Xrotation Yrotation
                    End Site
                    {
                      OFFSET 0.343874 -0.941341 0.267611
                    }
                  }
                }
              }
              JOINT lRing1
              {
                OFFSET 3.47877 0.200518 0.597719
                CHANNELS 6 Xposition Yposition Zposition Zrotation Xrotation Yrotation
                JOINT lRing2
                {
                  OFFSET 1.28208 -0.53155 0.44672
                  CHANNELS 6 Xposition Yposition Zposition Zrotation Xrotation Yrotation
                  JOINT lRing3
                  {
                    OFFSET 0.710288 -0.970167 0.4032
                    CHANNELS 6 Xposition Yposition Zposition Zrotation Xrotation Yrotation
                    End Site
                    {
                      OFFSET 0.403228 -0.950952 0.378354
                    }
                  }
                }
              }
              JOINT lPinky1
              {
                OFFSET 3.42483 -0.278904 -0.240415
                CHANNELS 6 Xposition Yposition Zposition Zrotation Xrotation Yrotation
                JOINT lPinky2
                {
                  OFFSET 1.05787 -0.635999 0.156459
                  CHANNELS 6 Xposition Yposition Zposition Zrotation Xrotation Yrotation
                  JOINT lPinky3
                  {
                    OFFSET 0.42815 -0.754232 0.287187
                    CHANNELS 6 Xposition Yposition Zposition Zrotation Xrotation Yrotation
                    End Site
                    {
                      OFFSET 0.235717 -0.725605 0.279416
                    }
                  }
                }
              }
            }
          }
        }
      }
    }
  }
  JOINT rThigh
  {
    OFFSET -4.17848 -1.02486 0.046356
    CHANNELS 6 Xposition Yposition Zposition Zrotation Xrotation Yrotation
    JOINT rShin
    {
      OFFSET 1.27155 -17.465 -0.237699
      CHANNELS 6 Xposition Yposition Zposition Zrotation Xrotation Yrotation
      JOINT rFoot
      {
        OFFSET 0.529163 -17.3815 -1.19582
        CHANNELS 6 Xposition Yposition Zposition Zrotation Xrotation Yrotation
        JOINT rToe
        {
          OFFSET -0.711591 -4.4863 4.0596
          CHANNELS 6 Xposition Yposition Zposition Zrotation Xrotation Yrotation
          End Site
          {
            OFFSET -0.869915 -1.10655 1.99006
          }
        }
      }
    }
  }
  JOINT lThigh
  {
    OFFSET 4.17848 -1.02486 0.046356
    CHANNELS 6 Xposition Yposition Zposition Zrotation Xrotation Yrotation
    JOINT lShin
    {
      OFFSET -1.27155 -17.465 -0.237699
      CHANNELS 6 Xposition Yposition Zposition Zrotation Xrotation Yrotation
      JOINT lFoot
      {
        OFFSET -0.529163 -17.3815 -1.19582
        CHANNELS 6 Xposition Yposition Zposition Zrotation Xrotation Yrotation
        JOINT lToe
        {
          OFFSET 0.711591 -4.4863 4.0596
          CHANNELS 6 Xposition Yposition Zposition Zrotation Xrotation Yrotation
          End Site
          {
            OFFSET 0.869915 -1.10655 1.99006
          }
        }
      }
    }
  }
}
MOTION
Frames:	4
Frame Time:	0.0333333
-0.457006 41.5636 7.74564 -2.24184 27.764 -1.05314 4.44089e-016 5.99393 0.287273 4.3652 6.32841 -1.4712 1.11022e-016 6.65865 -0.856112 8.97484 12.5227 -3.45738 8.88178e-016 8.65624 -1.42685 -11.4148 21.2987 -6.61836 -1.77636e-015 3.80999 -0.190247 9.3488 7.23515 -6.20093 -1.4963 7.5744 -1.52136 3.38494 -1.54865 -15.6528 -5.47506 -0.905672 0.485692 73.809 2.98153 -22.7976 -11.3069 -0.201091 0.618544 41.833 65.7924 -2.77414 -9.61414 -0.254739 3.48553 -53.3274 35.6031 23.9068 0.176263 -0.07068 1.26622 -7.36754 1.74313 -11.9994 -1.04683 -0.546484 1.82182 -0.218611 0.232539 -0.655856 -0.993472 -0.621916 0.655506 -2.27854 2.72372 -7.25743 -2.64253 0.566363 2.4162 5.18844 6.90117 -6.67874 -1.39394 -0.635138 0.899356 -1.2634 -0.338497 0.182501 -0.622395 -0.856016 0.402182 1.13675 0.301039 -0.170379 -3.20814 0.514427 1.52547 -6.01106 1.36872 0.943495 -1.56545 -0.497974 0.68919 -2.08093 -0.645 0.284505 -0.679943 -1.17582 0.444246 -6.43294 -2.02777 0.804122 -3.47877 0.200518 0.597719 -10.91 -4.63025 1.77806 -1.28208 -0.53155 0.44672 -6.17939 -2.20188 1.01385 -0.710288 -0.970167 0.4032 -10.4595 -3.79148 1.57723 -3.42483 -0.278904 -0.240415 -10.0536 -5.87084 2.34383 -1.05787 -0.635999 0.156459 -8.35995 -3.23862 1.18209 -0.42815 -0.754232 0.287187 -10.1664 -3.96072 1.37519 1.4963 7.5744 -1.52136 2.74913 3.42238 12.3255 5.47506 -0.905672 0.485692 -69.0288 12.6647 10.7992 11.3069 -0.201091 0.618544 -53.8212 57.8609 -1.77276 9.61414 -0.254739 3.48553 24.2773 29.5887 -29.5979 -0.176263 -0.07068 1.26622 2.74064 2.81311 9.9011 1.04683 -0.546484 1.82182 -1.10811 -0.308521 -1.96782 0.993472 -0.621916 0.655506 2.44897 0.830974 4.40252 2.64253 0.566363 2.4162 -14.5168 7.61103 13.936 1.39394 -0.635138 0.899356 -9.59115 2.84682 4.04111 0.622395 -0.856016 0.402182 -11.8722 3.41318 5.05551 3.20814 0.514427 1.52547 -9.57799 6.3739 5.36874 1.56545 -0.497974 0.68919 -13.5915 4.39928 5.92465 0.679943 -1.17582 0.444246 -9.43434 3.22097 4.0249 3.47877 0.200518 0.597719 -8.55943 2.70008 3.62362 1.28208 -0.53155 0.44672 -12.9847 4.63906 6.35766 0.710288 -0.970167 0.4032 -8.90608 3.35912 4.27688 3.42483 -0.278904 -0.240415 -9.39781 2.5014 2.57459 1.05787 -0.635999 0.156459 -10.7808 4.32812 5.14795 0.42815 -0.754232 0.287187 -9.06221 3.71485 4.28695 -4.17848 -1.02486 0.046356 7.9573 -43.5506 35.6617 1.27155 -17.465 -0.237699 9.78772 39.6825 -1.01617 0.529163 -17.3815 -1.19582 -5.38681 -24.4516 3.06095 -0.711591 -4.4863 4.0596 0.000104005 -8.64612e-006 -8.80602e-006 4.17848 -1.02486 0.046356 -1.0579 -45.1499 -25.7096 -1.27155 -17.465 -0.237699 1.69798 43.2427 -4.16733 -0.529163 -17.3815 -1.19582 -1.10084 -26.4216 0.693401 0.711591 -4.4863 4.0596 -2.19886e-005 -1.16359e-005 1.01857e-005 
-0.419496 41.6429 7.78053 -2.40675 27.5562 -0.849027 0 5.99393 0.287273 3.88968 5.70621 -0.976286 -1.11022e-016 6.65865 -0.856112 7.93581 11.3314 -2.35899 0 8.65624 -1.42685 -9.68414 21.5812 -7.92986 -3.55271e-015 3.80999 -0.190247 10.611 10.0381 -7.70123 -1.4963 7.5744 -1.52136 3.10877 -1.36625 -15.5074 -5.47506 -0.905672 0.485692 73.4803 -0.325924 -22.4549 -11.3069 -0.201091 0.618544 50.2491 69.9895 -11.0411 -9.61414 -0.254739 3.48553 -50.7522 33.5468 20.4473 0.176263 -0.07068 1.26622 -7.36752 1.74304 -11.9994 -1.04683 -0.546484 1.82182 -0.218627 0.23255 -0.65586 -0.993472 -0.621916 0.655506 -2.27856 2.72378 -7.2574 -2.64253 0.566363 2.4162 5.18841 6.9012 -6.67873 -1.39394 -0.635138 0.899356 -1.26339 -0.33851 0.182501 -0.622395 -0.856016 0.402182 1.13675 0.301046 -0.170374 -3.20814 0.514427 1.52547 -6.01106 1.36871 0.943495 -1.56545 -0.497974 0.68919 -2.08095 -0.644984 0.284512 -0.679943 -1.17582 0.444246 -6.43294 -2.02777 0.804123 -3.47877 0.200518 0.597719 -10.91 -4.63017 1.77808 -1.28208 -0.53155 0.44672 -6.17939 -2.20188 1.01384 -0.710288 -0.970167 0.4032 -10.4595 -3.79148 1.57724 -3.42483 -0.278904 -0.240415 -10.0536 -5.87081 2.34385 -1.05787 -0.635999 0.156459 -8.35995 -3.23859 1.18211 -0.42815 -0.754232 0.287187 -10.1664 -3.96072 1.37519 1.4963 7.5744 -1.52136 2.74911 3.42238 12.3255 5.47506 -0.905672 0.485692 -67.1646 12.3768 10.8352 11.3069 -0.201091 0.618544 -56.336 58.9175 -1.36819 9.61414 -0.254739 3.48553 22.1683 29.9378 -26.7373 -0.176263 -0.07068 1.26622 2.74065 2.8131 9.90109 1.04683 -0.546484 1.82182 -1.10814 -0.308559 -1.9678 0.993472 -0.621916 0.655506 2.44896 0.830989 4.4025 2.64253 0.566363 2.4162 -14.5168 7.61103 13.936 1.39394 -0.635138 0.899356 -9.59115 2.84669 4.04116 0.622395 -0.856016 0.402182 -11.8722 3.41297 5.05566 3.20814 0.514427 1.52547 -9.57801 6.3738 5.3687 1.56545 -0.497974 0.68919 -13.5915 4.39929 5.92476 0.679943 -1.17582 0.444246 -9.43433 3.22114 4.02483 3.47877 0.200518 0.597719 -8.55945 2.69995 3.62359 1.28208 -0.53155 0.44672 -12.9847 4.63896 6.35781 0.710288 -0.970167 0.4032 -8.90609 3.35925 4.27678 3.42483 -0.278904 -0.240415 -9.39781 2.50135 2.57458 1.05787 -0.635999 0.156459 -10.7808 4.32794 5.14811 0.42815 -0.754232 0.287187 -9.06221 3.71496 4.28687 -4.17848 -1.02486 0.046356 7.7492 -42.9018 35.4605 1.27155 -17.465 -0.237699 9.38282 38.9181 -0.814211 0.529163 -17.3815 -1.19582 -4.9853 -24.2975 3.07537 -0.711591 -4.4863 4.0596 0.000107007 -7.15594e-006 -2.41854e-007 4.17848 -1.02486 0.046356 -0.822862 -44.6607 -25.5305 -1.27155 -17.465 -0.237699 1.62154 42.625 -4.20303 -0.529163 -17.3815 -1.19582 -0.978757 -26.1125 0.626574 0.711591 -4.4863 4.0596 -2.67642e-006 -2.34402e-007 8.31623e-006 
-0.371335 41.7275 7.8257 -2.58303 27.323 -0.634918 -4.44089e-016 5.99393 0.287273 3.34898 4.9761 -0.424478 -1.11022e-016 6.65865 -0.856112 6.77335 9.91848 -1.14779 0 8.65624 -1.42685 -7.8629 21.7856 -9.28532 0 3.80999 -0.190247 11.8345 12.3 -9.18894 -1.4963 7.5744 -1.52136 2.75597 -1.13327 -15.3208 -5.47506 -0.905672 0.485692 73.2044 -4.21725 -21.6213 -11.3069 -0.201091 0.618544 28.6304 83.9855 11.0031 -9.61414 -0.254739 3.48553 -47.84 30.3692 16.1135 0.176263 -0.07068 1.26622 -7.36757 1.74323 -11.9993 -1.04683 -0.546484 1.82182 -0.218646 0.23258 -0.65584 -0.993472 -0.621916 0.655506 -2.27861 2.72386 -7.25736 -2.64253 0.566363 2.4162 5.18841 6.90123 -6.67875 -1.39394 -0.635138 0.899356 -1.2634 -0.338481 0.182515 -0.622395 -0.856016 0.402182 1.13674 0.301046 -0.170372 -3.20814 0.514427 1.52547 -6.01108 1.36874 0.9435 -1.56545 -0.497974 0.68919 -2.08095 -0.644937 0.284543 -0.679943 -1.17582 0.444246 -6.43296 -2.02776 0.804129 -3.47877 0.200518 0.597719 -10.91 -4.63032 1.77804 -1.28208 -0.53155 0.44672 -6.17939 -2.20188 1.01384 -0.710288 -0.970167 0.4032 -10.4595 -3.79147 1.57725 -3.42483 -0.278904 -0.240415 -10.0536 -5.87076 2.34385 -1.05787 -0.635999 0.156459 -8.35996 -3.23852 1.18216 -0.42815 -0.754232 0.287187 -10.1664 -3.96071 1.3752 1.4963 7.5744 -1.52136 2.74916 3.42244 12.3255 5.47506 -0.905672 0.485692 -65.1589 12.1052 10.8553 11.3069 -0.201091 0.618544 -59.1697 60.0222 -0.89744 9.61414 -0.254739 3.48553 19.6957 30.097 -23.4719 -0.176263 -0.07068 1.26622 2.74065 2.81311 9.90108 1.04683 -0.546484 1.82182 -1.10808 -0.308486 -1.96785 0.993472 -0.621916 0.655506 2.44897 0.830936 4.40253 2.64253 0.566363 2.4162 -14.5168 7.61098 13.936 1.39394 -0.635138 0.899356 -9.59116 2.84682 4.0411 0.622395 -0.856016 0.402182 -11.8722 3.41326 5.05548 3.20814 0.514427 1.52547 -9.57798 6.37398 5.36875 1.56545 -0.497974 0.68919 -13.5915 4.39956 5.92451 0.679943 -1.17582 0.444246 -9.43435 3.22084 4.02499 3.47877 0.200518 0.597719 -8.55942 2.70017 3.62362 1.28208 -0.53155 0.44672 -12.9847 4.63906 6.35762 0.710288 -0.970167 0.4032 -8.90608 3.35908 4.27694 3.42483 -0.278904 -0.240415 -9.39783 2.50141 2.57457 1.05787 -0.635999 0.156459 -10.7808 4.32819 5.14787 0.42815 -0.754232 0.287187 -9.0622 3.71476 4.28705 -4.17848 -1.02486 0.046356 7.51639 -42.1682 35.2428 1.27155 -17.465 -0.237699 8.92242 38.0747 -0.590349 0.529163 -17.3815 -1.19582 -4.50966 -24.1645 3.10277 -0.711591 -4.4863 4.0596 0.000114214 -1.39589e-005 -4.82987e-006 4.17848 -1.02486 0.046356 -0.589555 -44.1069 -25.3503 -1.27155 -17.465 -0.237699 1.54476 41.9558 -4.23593 -0.529163 -17.3815 -1.19582 -0.834323 -25.7843 0.557503 0.711591 -4.4863 4.0596 7.74717e-006 -2.48664e-005 2.87843e-005 
-0.314641 41.8162 7.8785 -2.76405 27.0697 -0.414994 0 5.99393 0.287273 2.75951 4.16772 0.162186 -5.55112e-017 6.65865 -0.856112 5.52924 8.33841 0.122869 0 8.65624 -1.42685 -6.12601 22.0855 -10.5048 0 3.80999 -0.190247 12.8215 13.9691 -10.5105 -1.4963 7.5744 -1.52136 2.34585 -0.86283 -15.1029 -5.47506 -0.905672 0.485692 73.5148 -7.33459 -20.5975 -11.3069 -0.201091 0.618544 -85.3151 84.6613 124.297 -9.61414 -0.254739 3.48553 -47.5546 28.7791 14.5714 0.176263 -0.07068 1.26622 -7.36754 1.74321 -11.9993 -1.04683 -0.546484 1.82182 -0.21868 0.232623 -0.655799 -0.993472 -0.621916 0.655506 -2.27852 2.72368 -7.25745 -2.64253 0.566363 2.4162 5.18839 6.90133 -6.67876 -1.39394 -0.635138 0.899356 -1.2634 -0.338459 0.182533 -0.622395 -0.856016 0.402182 1.13674 0.301045 -0.170368 -3.20814 0.514427 1.52547 -6.01107 1.36873 0.943496 -1.56545 -0.497974 0.68919 -2.08093 -0.64504 0.284492 -0.679943 -1.17582 0.444246 -6.43295 -2.02774 0.804158 -3.47877 0.200518 0.597719 -10.91 -4.63032 1.77804 -1.28208 -0.53155 0.44672 -6.17938 -2.20189 1.01384 -0.710288 -0.970167 0.4032 -10.4595 -3.79147 1.57726 -3.42483 -0.278904 -0.240415 -10.0536 -5.87064 2.34388 -1.05787 -0.635999 0.156459 -8.35995 -3.23863 1.18206 -0.42815 -0.754232 0.287187 -10.1664 -3.96073 1.37518 1.4963 7.5744 -1.52136 2.74909 3.42231 12.3255 5.47506 -0.905672 0.485692 -63.0944 11.8498 10.8534 11.3069 -0.201091 0.618544 -62.2065 61.1193 -0.357758 9.61414 -0.254739 3.48553 16.9788 30.0188 -19.9223 -0.176263 -0.07068 1.26622 2.74062 2.81308 9.90111 1.04683 -0.546484 1.82182 -1.10808 -0.30847 -1.96788 0.993472 -0.621916 0.655506 2.44897 0.830956 4.40251 2.64253 0.566363 2.4162 -14.5168 7.61089 13.936 1.39394 -0.635138 0.899356 -9.59116 2.84669 4.04117 0.622395 -0.856016 0.402182 -11.8721 3.41327 5.05553 3.20814 0.514427 1.52547 -9.57795 6.37396 5.36876 1.56545 -0.497974 0.68919 -13.5915 4.39943 5.92466 0.679943 -1.17582 0.444246 -9.43434 3.22095 4.02493 3.47877 0.200518 0.597719 -8.55938 2.70013 3.62365 1.28208 -0.53155 0.44672 -12.9847 4.63902 6.3577 0.710288 -0.970167 0.4032 -8.90608 3.35917 4.27682 3.42483 -0.278904 -0.240415 -9.39782 2.50133 2.57459 1.05787 -0.635999 0.156459 -10.7808 4.32817 5.14797 0.42815 -0.754232 0.287187 -9.0622 3.71478 4.28699 -4.17848 -1.02486 0.046356 7.26501 -41.363 35.0142 1.27155 -17.465 -0.237699 8.41901 37.1607 -0.355596 0.529163 -17.3815 -1.19582 -3.99008 -24.0388 3.13439 -0.711591 -4.4863 4.0596 7.09806e-005 -5.116e-006 -6.87837e-006 4.17848 -1.02486 0.046356 -0.361338 -43.5005 -25.1714 -1.27155 -17.465 -0.237699 1.46863 41.2418 -4.26648 -0.529163 -17.3815 -1.19582 -0.673848 -25.4384 0.485939 0.711591 -4.4863 4.0596 3.32472e-006 -8.59679e-006 2.33983e-005 
